<svg width="29" height="18" viewBox="0 0 29 18" fill="none" xmlns="http://www.w3.org/2000/svg">
<path d="M0 0L1.43438 16.2L7.875 18L14.3134 16.2011L15.75 0H0ZM12.6394 5.29763H7.875H5.0895L5.2695 7.33275H7.875H12.4594L11.9182 13.4348L7.875 14.5631L7.87275 14.5643L3.83175 13.4348L3.54825 10.2431H5.52825L5.6745 11.8991L7.87163 12.4976L7.875 12.4954L10.0744 11.8969L10.3039 9.3195H7.875H3.46725L2.934 3.312H7.875H12.8149L12.6394 5.29763Z" fill="#E44D26"/>
<path d="M12.6001 0L14.0345 16.2L20.4751 18L26.9135 16.2011L28.3501 0H12.6001ZM25.2833 5.29763L25.1022 7.33275L24.5566 13.4348L20.4751 14.562L20.4728 14.5631L16.3947 13.4336L16.109 10.2431H18.107L18.2555 11.8991L20.4728 12.4976L20.4751 12.4954L22.6947 11.8969L22.9973 9.1395L16.0133 9.15862L15.8153 7.272L23.165 7.1865L23.3135 5.16712L15.6185 5.1885L15.4891 3.312H20.4751H25.4611L25.2833 5.29763Z" fill="#4097DC"/>
</svg>
