<?xml version="1.0" encoding="UTF-8" standalone="no"?>
<!-- Created with Inkscape (http://www.inkscape.org/) -->

<svg
   xmlns:dc="http://purl.org/dc/elements/1.1/"
   xmlns:cc="http://creativecommons.org/ns#"
   xmlns:rdf="http://www.w3.org/1999/02/22-rdf-syntax-ns#"
   xmlns:svg="http://www.w3.org/2000/svg"
   xmlns="http://www.w3.org/2000/svg"
   xmlns:sodipodi="http://sodipodi.sourceforge.net/DTD/sodipodi-0.dtd"
   xmlns:inkscape="http://www.inkscape.org/namespaces/inkscape"
   width="48"
   height="48"
   viewBox="0 0 12.7 12.7"
   version="1.1"
   id="svg8"
   inkscape:version="0.92.3 (2405546, 2018-03-11)"
   sodipodi:docname="workcontrol.svg">
  <defs
     id="defs2" />
  <sodipodi:namedview
     id="base"
     pagecolor="#ffffff"
     bordercolor="#666666"
     borderopacity="1.0"
     inkscape:pageopacity="0.0"
     inkscape:pageshadow="2"
     inkscape:zoom="7.9195959"
     inkscape:cx="21.377945"
     inkscape:cy="21.886132"
     inkscape:document-units="mm"
     inkscape:current-layer="layer1"
     showgrid="false"
     inkscape:window-width="1366"
     inkscape:window-height="703"
     inkscape:window-x="0"
     inkscape:window-y="0"
     inkscape:window-maximized="1"
     units="px" />
  <metadata
     id="metadata5">
    <rdf:RDF>
      <cc:Work
         rdf:about="">
        <dc:format>image/svg+xml</dc:format>
        <dc:type
           rdf:resource="http://purl.org/dc/dcmitype/StillImage" />
        <dc:title></dc:title>
      </cc:Work>
    </rdf:RDF>
  </metadata>
  <g
     inkscape:label="Camada 1"
     inkscape:groupmode="layer"
     id="layer1"
     transform="translate(0,-284.3)">
    <g
       id="g91"
       transform="matrix(0.06486343,0,0,0.06486343,-2.7870051,283.34341)">
      <path
         style="fill:#00876e;stroke-width:0.60464543"
         d="M 126.97178,208.28892 C 98.538053,203.64409 74.933828,188.42841 59.629587,164.87898 53.286559,155.11861 48.869169,144.06887 46.180642,131.23751 c -2.31317,-11.03992 -2.31317,-25.96624 0,-37.00618 C 50.28679,74.634198 58.81376,58.449982 71.967599,45.287653 87.466453,29.778769 104.19392,21.16375 126.10807,17.404128 c 6.09644,-1.045917 8.89808,-1.194199 17.53472,-0.928169 15.63903,0.481725 26.27253,3.1013 39.90659,9.83102 10.1127,4.991607 17.76818,10.475102 25.69744,18.406702 14.5232,14.527519 23.22608,31.420654 26.9435,52.299961 1.58029,8.875848 1.47772,23.256398 -0.23139,32.457458 -3.74371,20.15307 -12.603,37.14895 -26.72599,51.27196 -13.61977,13.61974 -30.11751,22.53669 -49.26461,26.62721 -7.89139,1.68589 -25.32794,2.17134 -32.99643,0.91865 z m 22.50223,-1.56638 c 13.15415,-1.3422 23.47016,-4.383 34.98233,-10.31163 25.30365,-13.03105 42.911,-36.28452 49.09871,-64.84313 1.13249,-5.22682 1.32943,-8.01684 1.32943,-18.83335 0,-14.33773 -0.82996,-19.701521 -4.83211,-31.228575 -10.6235,-30.598066 -37.0864,-54.061977 -68.69547,-60.910327 -13.76578,-2.982479 -27.10426,-2.982479 -40.87005,0 C 88.016894,27.6304 60.985257,52.284715 50.929374,84.035711 47.57052,94.641132 46.917789,99.390899 46.943943,113.03674 c 0.02684,14.00548 0.894469,19.54088 4.847431,30.92626 10.657043,30.69463 37.234712,54.19151 68.947136,60.95501 10.79051,2.30135 18.88466,2.80963 28.7355,1.80453 z m -15.20323,-4.5689 c -16.18037,-1.40202 -32.50392,-7.16949 -45.348407,-16.02255 -10.306446,-7.10374 -11.634497,-9.00192 -6.298127,-9.00192 2.382515,0 2.777854,-0.19561 3.360369,-1.66278 0.363097,-0.91453 3.471615,-12.91806 6.907811,-26.67454 3.436196,-13.75646 6.397465,-25.16159 6.580597,-25.3447 0.183133,-0.18321 0.437715,-0.2197 0.565737,-0.0809 0.12803,0.1386 2.46926,7.73442 5.20274,16.87968 5.04143,16.86682 10.54273,33.88556 11.5853,35.84006 0.51784,0.97084 1.50502,1.05717 10.36861,0.90698 l 9.79627,-0.16603 3.21263,-9.67434 c 7.79726,-23.48013 22.58609,-79.822299 21.61573,-82.351058 -0.2314,-0.603003 -2.63622,-0.787664 -10.25716,-0.787664 -8.96258,0 -9.985,0.105439 -10.25716,1.05813 -0.16632,0.581964 -1.15894,5.275528 -2.20597,10.430136 -4.65404,22.912076 -11.279,50.790686 -12.31616,51.827846 -0.21634,0.21637 -0.64061,0.13932 -0.94281,-0.17104 -0.61596,-0.63265 -7.00817,-20.6153 -12.75275,-39.86628 -2.08395,-6.98365 -4.08832,-12.901257 -4.45416,-13.15023 -0.36584,-0.248973 -4.88257,-0.385041 -10.037173,-0.302313 l -9.372002,0.150525 -0.687619,2.418597 c -0.37819,1.330219 -2.882565,11.397571 -5.565281,22.371881 -5.650095,23.1131 -7.296343,28.83846 -8.206325,28.54011 C 73.521658,146.91342 66.332886,120.80331 60.831355,96.711592 59.65426,91.556984 58.547297,86.717762 58.371434,85.95777 58.195576,85.197754 57.360787,84.313239 56.51636,83.992176 54.657477,83.285452 54.728581,82.957257 58.471064,74.970504 64.698711,61.680194 76.71921,47.528961 88.620048,39.477323 113.20658,22.843133 142.38976,18.805554 170.51341,28.147215 c 20.11275,6.680699 37.89947,21.0659 48.90909,39.55576 3.47482,5.835712 7.22211,14.230956 6.62058,14.832456 -0.18082,0.18082 -3.06411,0.04795 -6.40734,-0.295061 -19.05608,-1.955526 -37.04337,4.672978 -46.46085,17.121259 -3.3655,4.448621 -7.04372,11.929291 -8.50795,17.303251 -1.65474,6.07311 -1.45268,23.93454 0.345,30.49952 4.35479,15.90332 14.5949,25.99486 30.55342,30.11009 2.91464,0.75159 5.3345,1.63728 5.37741,1.96819 0.0429,0.33089 -1.67628,2.01791 -3.8205,3.74891 -10.69728,8.63582 -26.15115,15.45825 -40.77381,18.00043 -5.16936,0.89871 -17.57833,1.55176 -22.07768,1.1619 z m 71.95279,-41.40914 c -7.14116,-1.39463 -14.31153,-6.99542 -17.29291,-13.50758 -4.25974,-9.30452 -4.26091,-24.02383 -0.002,-33.32518 3.07117,-6.70832 9.95733,-11.98326 17.76749,-13.61023 7.30577,-1.52194 22.98197,0.56352 24.41894,3.24851 1.07053,2.00035 0.22543,20.78121 -1.22955,27.32377 -2.23325,10.04214 -6.41384,20.64073 -10.91146,27.66253 l -1.83961,2.87206 -4.09469,-0.0663 c -2.25228,-0.0363 -5.31928,-0.30536 -6.81579,-0.59763 z"
         id="path93"
         inkscape:connector-curvature="0" />
    </g>
  </g>
</svg>
