<svg width="27" height="27" viewBox="0 0 27 27" fill="none" xmlns="http://www.w3.org/2000/svg">
<g clip-path="url(#clip0)">
<path d="M13.8262 24.1864C18.0225 24.1864 23.8837 24.2876 26.0156 20.0228C26.82 18.3926 27 16.5105 27 14.7353H26.9988C26.9988 12.4031 26.352 10.1824 24.8051 8.3779C25.6893 5.71953 25.0976 4.1524 24.417 2.8114C21.897 2.8114 20.2657 3.2839 18.3532 4.77115C15.264 4.03653 11.7652 4.12878 8.84134 4.81615C6.90071 3.31315 5.26946 2.81253 2.72134 2.81253C2.02271 4.20415 1.44334 5.7364 2.33434 8.41165C-0.676164 11.88 -0.439914 16.9234 1.13621 20.0239C3.35246 24.3383 9.56246 24.1864 13.8262 24.1864ZM7.87608 12.9477C8.94483 12.9477 9.97421 13.1366 11.0261 13.2818C14.8713 13.8668 16.893 12.9477 19.2498 12.9477C21.8812 12.9477 23.3842 15.102 23.3842 17.5455C23.3842 22.4381 18.8673 23.184 14.913 23.184C12.1916 23.0006 3.74171 24.282 3.74171 17.5455C3.74171 15.102 5.24246 12.9477 7.87608 12.9477Z" fill="#35495E"/>
<path d="M18.7369 20.6134C20.1881 20.6134 20.8012 18.7099 20.8012 17.5455C20.8012 16.3811 20.1881 14.4776 18.7369 14.4776C17.2856 14.4776 16.6725 16.3811 16.6725 17.5455C16.6725 18.7099 17.2856 20.6134 18.7369 20.6134Z" fill="#35495E"/>
<path d="M8.40373 20.6134C9.85498 20.6134 10.4681 18.7099 10.4681 17.5455C10.4681 16.3811 9.85385 14.4788 8.40373 14.4788C6.9536 14.4788 6.33936 16.3823 6.33936 17.5466C6.33936 18.711 6.95248 20.6134 8.40373 20.6134Z" fill="#35495E"/>
</g>
<defs>
<clipPath id="clip0">
<rect width="27" height="27" fill="white"/>
</clipPath>
</defs>
</svg>
